<svg width="44" height="50" viewBox="0 0 44 50" xmlns="http://www.w3.org/2000/svg" xmlns:xlink="http://www.w3.org/1999/xlink"><title>dark slider bean</title><desc>Created using Figma</desc><use xlink:href="#a" transform="matrix(.9055 -.42435 .4209 .9071 -7 10.074)" fill="#33160E"/><use xlink:href="#b" transform="matrix(.9055 -.42435 .4209 .9071 10 9.77)" fill="#602B20"/><defs><path id="a" d="M20 51c11.2 0 20.2-11.4 20.2-25.5 0-14-9-25.5-20-25.5C9 0 0 11.4 0 25.5 0 39.5 9 51 20 51z"/><path id="b" d="M4 .6c-1.7 2-3 4.4-3.5 7-.7 2.6-.7 5.3 0 8 1.4 5.5 9.8 13.3 1.8 18C.3 35 2 38.2 4 37c4.3-2.6 6-8 5-12.5-.8-3-3-5-4.3-8-1-2-1.2-4.5-1-7 .4-2.2 1.4-4.5 3-6.3C8 1.4 5.4-1.2 4 .6z"/></defs></svg>