<svg width="183" height="203" viewBox="0 0 183 203" xmlns="http://www.w3.org/2000/svg"><title>Artboard 2</title><g fill="none" fill-rule="evenodd"><path fill="#173085" d="M-.048-.298h183.863v204.03H-.048"/><path d="M147.903 112.682c3.73 1.35 8-.31 10.37-3.33 1.6-2 1.78-4.49 2.93-6.7 1.89-3.536 5.57-5.75 9.58-5.76 1.92.08 2.26-2.9.33-3-4.44-.08-8.658 1.93-11.39 5.43-2.88 3.83-3.52 13.15-10.74 10.55-1.82-.65-2.9 2.15-1.08 2.81zM83.823-.268h-2.35c.78.11 1.57.11 2.35 0z"/><path d="M176.253 90.422c-5.7-7.11-17.66-7-26.71.27-.61.49-1.19 1-1.75 1.54h29.65c-.346-.636-.744-1.24-1.19-1.81zM170.203 48.432c-9.05 7.3-21.01 7.37-26.71.27-5.7-7.1-2.99-18.73 6.06-26s21.01-7.37 26.71-.27c5.7 7.1 2.94 18.74-6.06 26zm-21.23-6.55c-1.81-.66-2.89 2.14-1.08 2.81 3.73 1.35 7.97-.33 10.37-3.33 1.6-2.02 1.78-4.49 2.93-6.7 1.89-3.536 5.57-5.75 9.58-5.76 1.92.07 2.26-2.91.33-3-4.44-.08-8.658 1.93-11.39 5.43-2.88 3.83-3.52 13.15-10.74 10.55zM81.553 45.362c9.04-7.26 21.01-7.37 26.71-.27 5.7 7.1 2.99 18.73-6.06 26s-21.01 7.37-26.71.27c-5.7-7.1-2.94-18.74 6.06-26zm21.23 6.19h-.01c1.92.08 2.26-2.9.33-2.99-4.44-.08-8.658 1.93-11.39 5.43-2.88 3.83-3.52 13.15-10.74 10.55-1.81-.66-2.89 2.14-1.07 2.8 3.73 1.35 7.97-.33 10.37-3.33 1.6-2.02 1.78-4.49 2.93-6.7 1.89-3.538 5.57-5.75 9.58-5.76zM40.253 67.732c5.32 6.65 3.31 17.22-4.31 24.47H6.293c-4.01-7.2-1.07-17.53 7.25-24.2 9.05-7.27 21.01-7.38 26.71-.27zm-15.06 12.24c1.896-3.53 5.574-5.733 9.58-5.74 1.92.07 2.26-2.91.33-3-4.44-.086-8.663 1.922-11.4 5.42-2.88 3.83-3.52 13.15-10.74 10.55-1.81-.66-2.89 2.14-1.07 2.8 3.73 1.35 7.97-.33 10.37-3.33 1.6-2.02 1.78-4.49 2.93-6.7zM102.203 3.102c1.257-1.016 2.418-2.144 3.47-3.37h-21.85c-.78.11-1.57.11-2.35 0h-8c.47 1.31 1.145 2.54 2 3.64 5.72 7.11 17.68 6.99 26.73-.27zM7.493 26.042c-5.7-7.11-2.99-18.76 6.06-26.01l.4-.3h26.3c5.7 7.13 3 18.77-6.05 26.04s-21.01 7.38-26.71.27zm16.22-17.38c-2.88 3.83-3.52 13.15-10.75 10.56-1.81-.66-2.89 2.14-1.07 2.8 3.73 1.35 7.97-.33 10.37-3.33 1.6-2.02 1.78-4.49 2.93-6.7 1.89-3.536 5.57-5.75 9.58-5.76 1.92.07 2.26-2.91.33-3-4.44-.08-8.658 1.93-11.39 5.43zM143.493 116.732c-5.32-6.65-3.31-17.22 4.31-24.47h29.65c4.01 7.2 1.07 17.53-7.25 24.2-9.05 7.27-21.01 7.38-26.71.27zm5.48-6.83v-.02c-1.81-.66-2.89 2.14-1.08 2.83 3.73 1.35 7.97-.33 10.37-3.33 1.6-2.02 1.78-4.49 2.93-6.7 1.89-3.536 5.57-5.75 9.58-5.76 1.92.07 2.26-2.91.33-3-4.44-.08-8.658 1.93-11.39 5.43-2.88 3.83-3.52 13.15-10.74 10.55zM81.553 113.362c9.04-7.26 21.01-7.37 26.71-.27 5.7 7.1 2.99 18.73-6.06 26s-21.01 7.37-26.71.27c-5.7-7.1-2.94-18.74 6.06-26zm21.23 6.19h-.01c1.92.08 2.26-2.9.33-2.99-4.44-.08-8.658 1.93-11.39 5.43-2.88 3.83-3.52 13.15-10.74 10.55-1.81-.66-2.89 2.14-1.07 2.8 3.73 1.35 7.97-.33 10.37-3.33 1.6-2.02 1.78-4.49 2.93-6.7 1.89-3.538 5.57-5.75 9.58-5.76zM13.553 136.032c9.04-7.3 21.01-7.37 26.71-.27 5.7 7.1 2.99 18.73-6.06 26s-21.01 7.37-26.71.27c-5.7-7.1-2.94-18.74 6.06-26zm21.23 6.19l-.01-.01c1.92.09 2.26-2.89.33-2.98-4.44-.08-8.658 1.93-11.39 5.43-2.88 3.83-3.52 13.15-10.74 10.55-1.81-.66-2.89 2.14-1.07 2.8 3.73 1.35 7.97-.33 10.37-3.33 1.6-2.02 1.78-4.49 2.93-6.7 1.89-3.536 5.57-5.75 9.58-5.76z" fill="#152A75" fill-rule="nonzero"/><path d="M34.203 93.732c.61-.49 1.19-1 1.75-1.54H6.303c.346.635.744 1.24 1.19 1.81 5.7 7.15 17.66 7.02 26.71-.27zM149.553 158.732c9.04-7.29 21.01-7.37 26.71-.27 5.7 7.1 2.99 18.73-6.06 26s-21.01 7.37-26.71.27c-5.7-7.1-2.94-18.74 6.06-26zm21.23 6.19l-.01-.04c1.92.08 2.26-2.9.33-2.95-4.44-.08-8.658 1.93-11.39 5.43-2.88 3.83-3.52 13.15-10.74 10.55-1.81-.66-2.89 2.14-1.07 2.8 3.73 1.35 7.97-.33 10.37-3.33 1.6-2.02 1.78-4.49 2.93-6.7 1.89-3.536 5.57-5.75 9.58-5.76zM108.253 181.092c-5.7-7.11-17.66-7-26.71.27-7.63 6.12-10.73 15.37-8.09 22.37h8c-.536-.077-1.062-.207-1.57-.39-1.82-.66-.74-3.46 1.07-2.8 7.22 2.6 7.86-6.72 10.74-10.55 2.732-3.5 6.95-5.51 11.39-5.43 1.93.09 1.59 3.07-.33 3-4.01.01-7.69 2.222-9.58 5.76-1.15 2.21-1.33 4.68-2.93 6.7-1.595 2.003-3.888 3.33-6.42 3.71h21.85c6.16-7.14 7.47-16.55 2.58-22.64zM13.953 203.732h26.28c-5.63-7-17.3-6.94-26.28 0z" fill="#152A75" fill-rule="nonzero"/></g></svg>