<?xml version="1.0" encoding="UTF-8"?>
<svg width="195px" height="203px" viewBox="0 0 195 203" version="1.1" xmlns="http://www.w3.org/2000/svg" xmlns:xlink="http://www.w3.org/1999/xlink">
    <!-- Generator: Sketch 45.2 (43514) - http://www.bohemiancoding.com/sketch -->
    <title>Artboard</title>
    <desc>Created with Sketch.</desc>
    <defs></defs>
    <g id="Page-1" stroke="none" stroke-width="1" fill="none" fill-rule="evenodd">
        <g id="Artboard">
            <polygon id="Rectangle" fill="#173085" fill-rule="nonzero" points="0 0 195.609176 0 195.609176 203.034732 0 203.034732"></polygon>
            <path d="M147.952413,112.428878 C151.682413,113.772293 155.952413,112.12039 158.322413,109.115122 C159.922413,107.124878 160.102413,104.647024 161.252413,102.447805 C163.14322,98.9291321 166.822706,96.7276232 170.832413,96.7159024 C172.752413,96.7955122 173.092413,93.8300488 171.162413,93.7305366 C166.72353,93.6510662 162.505207,95.6522743 159.772413,99.1340488 C156.892413,102.945366 156.252413,112.219902 149.032413,109.632585 C147.212413,108.985756 146.132413,111.772098 147.952413,112.428878 Z" id="Shape"></path>
            <path d="M83.8724131,0.0298536585 L81.5224131,0.0298536585 C82.30195,0.138387364 83.0928761,0.138387364 83.8724131,0.0298536585 Z" id="Shape"></path>
            <path d="M176.302413,90.2774634 C170.602413,83.2021463 158.642413,83.3116098 149.592413,90.5461463 C148.982413,91.0337561 148.402413,91.5412683 147.842413,92.0786341 L177.492413,92.0786341 C177.146394,91.446582 176.748367,90.8441327 176.302413,90.2774634 Z" id="Shape" fill="#152A75" fill-rule="nonzero"></path>
            <path d="M170.252413,48.4922927 C179.252413,41.2677073 182.012413,29.6844878 176.312413,22.619122 C170.612413,15.5537561 158.652413,15.6532683 149.602413,22.8878049 C140.552413,30.1223415 137.842413,41.6956098 143.542413,48.7609756 C149.242413,55.8263415 161.202413,55.7566829 170.252413,48.4922927 Z M149.022413,41.9742439 C156.242413,44.561561 156.882413,35.2870244 159.762413,31.4757073 C162.495207,27.9939328 166.71353,25.9927248 171.152413,26.0721951 C173.082413,26.1617561 172.742413,29.1272195 170.822413,29.057561 C166.812706,29.0692817 163.13322,31.2707906 161.242413,34.7894634 C160.092413,36.9886829 159.912413,39.4466341 158.312413,41.4567805 C155.912413,44.4421463 151.672413,46.1139512 147.942413,44.7705366 C146.132413,44.1038049 147.212413,41.3174634 149.022413,41.9742439 Z" id="Shape" fill="#152A75" fill-rule="nonzero"></path>
            <path d="M81.6024131,45.4372683 C72.6024131,52.6618537 69.8424131,64.2450732 75.5424131,71.310439 C81.2424131,78.3758049 93.2024131,78.2762927 102.252413,71.0417561 C111.302413,63.8072195 114.012413,52.2339512 108.312413,45.1685854 C102.612413,38.1032195 90.6424131,38.2126829 81.6024131,45.4372683 Z M102.832413,51.5970732 C98.822093,51.6066065 95.1415661,53.8087383 93.2524131,57.3289756 C92.1024131,59.5281951 91.9224131,61.9861463 90.3224131,63.9962927 C87.9224131,66.9816585 83.6824131,68.6534634 79.9524131,67.3100488 C78.1324131,66.6532683 79.2124131,63.8669268 81.0224131,64.5237073 C88.2424131,67.1110244 88.8824131,57.8364878 91.7624131,54.0251707 C94.4952072,50.5433963 98.7135302,48.5421882 103.152413,48.6216585 C105.082413,48.7112195 104.742413,51.6766829 102.822413,51.5970732 L102.832413,51.5970732 Z" id="Shape" fill="#152A75" fill-rule="nonzero"></path>
            <path d="M81.6024131,45.4372683 C72.6024131,52.6618537 69.8424131,64.2450732 75.5424131,71.310439 C81.2424131,78.3758049 93.2024131,78.2762927 102.252413,71.0417561 C111.302413,63.8072195 114.012413,52.2339512 108.312413,45.1685854 C102.612413,38.1032195 90.6424131,38.2126829 81.6024131,45.4372683 Z" id="Shape-path" fill="#152A75"></path>
            <path d="M102.832413,51.5970732 C98.822093,51.6066065 95.1415661,53.8087383 93.2524131,57.3289756 C92.1024131,59.5281951 91.9224131,61.9861463 90.3224131,63.9962927 C87.9224131,66.9816585 83.6824131,68.6534634 79.9524131,67.3100488 C78.1324131,66.6532683 79.2124131,63.8669268 81.0224131,64.5237073 C88.2424131,67.1110244 88.8824131,57.8364878 91.7624131,54.0251707 C94.4952072,50.5433963 98.7135302,48.5421882 103.152413,48.6216585 C105.082413,48.7112195 104.742413,51.6766829 102.822413,51.5970732 L102.832413,51.5970732 Z" id="Shape-path" fill="#173085"></path>
            <path d="M40.3024131,67.6981463 C34.6024131,60.6228293 22.6424131,60.7322927 13.5924131,67.9668293 C5.27241307,74.6042927 2.33241307,84.8839024 6.34241307,92.0487805 L35.9924131,92.0487805 C43.6124131,84.8341463 45.6224131,74.3157073 40.3024131,67.6981463 Z M25.2424131,79.878439 C24.0924131,82.0776585 23.9124131,84.5356098 22.3124131,86.5457561 C19.9124131,89.531122 15.6724131,91.2029268 11.9424131,89.8595122 C10.1224131,89.2027317 11.2024131,86.4163902 13.0124131,87.0731707 C20.2324131,89.6604878 20.8724131,80.3859512 23.7524131,76.5746341 C26.4893928,73.0937661 30.711773,71.0960762 35.1524131,71.1810732 C37.0824131,71.2706341 36.7424131,74.2360976 34.8224131,74.166439 C30.8169957,74.1742214 27.1385516,76.3674649 25.2424131,79.878439 Z" id="Shape" fill="#152A75" fill-rule="nonzero"></path>
            <path d="M40.3024131,67.6981463 C34.6024131,60.6228293 22.6424131,60.7322927 13.5924131,67.9668293 C5.27241307,74.6042927 2.33241307,84.8839024 6.34241307,92.0487805 L35.9924131,92.0487805 C43.6124131,84.8341463 45.6224131,74.3157073 40.3024131,67.6981463 Z" id="Shape-path" fill="#152A75"></path>
            <path d="M25.2424131,79.878439 C24.0924131,82.0776585 23.9124131,84.5356098 22.3124131,86.5457561 C19.9124131,89.531122 15.6724131,91.2029268 11.9424131,89.8595122 C10.1224131,89.2027317 11.2024131,86.4163902 13.0124131,87.0731707 C20.2324131,89.6604878 20.8724131,80.3859512 23.7524131,76.5746341 C26.4893928,73.0937661 30.711773,71.0960762 35.1524131,71.1810732 C37.0824131,71.2706341 36.7424131,74.2360976 34.8224131,74.166439 C30.8169957,74.1742214 27.1385516,76.3674649 25.2424131,79.878439 Z" id="Shape-path" fill="#173085"></path>
            <path d="M102.252413,3.38341463 C103.509435,2.37320991 104.670943,1.25067759 105.722413,0.0298536585 L83.8724131,0.0298536585 C83.0928761,0.138387364 82.30195,0.138387364 81.5224131,0.0298536585 L73.5224131,0.0298536585 C73.9926708,1.33479527 74.6677039,2.55736257 75.5224131,3.65209756 C81.2424131,10.7274146 93.2024131,10.608 102.252413,3.38341463 Z" id="Shape" fill="#152A75" fill-rule="nonzero"></path>
            <path d="M7.54241307,26.2115122 C13.2424131,33.2868293 25.2024131,33.1773659 34.2524131,25.9428293 C43.3024131,18.7082927 46.0024131,7.12507317 40.3024131,0.0298536585 L40.3024131,0.0298536585 L14.0024131,0.0298536585 L13.6024131,0.328390244 C4.55241307,7.54302439 1.84241307,19.1361951 7.54241307,26.2115122 Z M23.7624131,8.91629268 C26.4952072,5.43451818 30.7135302,3.43331015 35.1524131,3.51278049 C37.0824131,3.60234146 36.7424131,6.56780488 34.8224131,6.49814634 C30.812706,6.50986705 27.1332199,8.71137599 25.2424131,12.2300488 C24.0924131,14.4292683 23.9124131,16.8872195 22.3124131,18.8973659 C19.9124131,21.8827317 15.6724131,23.5545366 11.9424131,22.211122 C10.1224131,21.5543415 11.2024131,18.768 13.0124131,19.4247805 C20.2424131,22.0021463 20.8824131,12.7276098 23.7624131,8.91629268 Z" id="Shape" fill="#152A75" fill-rule="nonzero"></path>
            <path d="M143.542413,116.459122 C149.242413,123.534439 161.202413,123.424976 170.252413,116.190439 C178.572413,109.552976 181.512413,99.2733659 177.502413,92.1084878 L147.852413,92.1084878 C140.232413,99.323122 138.222413,109.841561 143.542413,116.459122 Z M149.022413,109.662439 C156.242413,112.249756 156.882413,102.97522 159.762413,99.1639024 C162.495207,95.682128 166.71353,93.6809199 171.152413,93.7603902 C173.082413,93.8499512 172.742413,96.8154146 170.822413,96.7457561 C166.812706,96.7574768 163.13322,98.9589857 161.242413,102.477659 C160.092413,104.676878 159.912413,107.134829 158.312413,109.144976 C155.912413,112.130341 151.672413,113.802146 147.942413,112.458732 C146.132413,111.772098 147.212413,108.985756 149.022413,109.642537 L149.022413,109.662439 Z" id="Shape" fill="#152A75" fill-rule="nonzero"></path>
            <path d="M81.6024131,113.105561 C72.6024131,120.330146 69.8424131,131.913366 75.5424131,138.978732 C81.2424131,146.044098 93.2024131,145.944585 102.252413,138.710049 C111.302413,131.475512 114.012413,119.902244 108.312413,112.836878 C102.612413,105.771512 90.6424131,105.880976 81.6024131,113.105561 Z M102.832413,119.265366 C98.822093,119.274899 95.1415661,121.477031 93.2524131,124.997268 C92.1024131,127.196488 91.9224131,129.654439 90.3224131,131.664585 C87.9224131,134.649951 83.6824131,136.321756 79.9524131,134.978341 C78.1324131,134.321561 79.2124131,131.53522 81.0224131,132.192 C88.2424131,134.779317 88.8824131,125.50478 91.7624131,121.693463 C94.4952072,118.211689 98.7135302,116.210481 103.152413,116.289951 C105.082413,116.379512 104.742413,119.344976 102.822413,119.265366 L102.832413,119.265366 Z" id="Shape" fill="#152A75" fill-rule="nonzero"></path>
            <path d="M13.6024131,135.664976 C4.60241307,142.889561 1.84241307,154.47278 7.54241307,161.538146 C13.2424131,168.603512 25.2024131,168.504 34.2524131,161.269463 C43.3024131,154.034927 46.0124131,142.461659 40.3124131,135.396293 C34.6124131,128.330927 22.6424131,128.400585 13.6024131,135.664976 Z M34.8324131,141.82478 C30.822706,141.836501 27.1432199,144.03801 25.2524131,147.556683 C24.1024131,149.755902 23.9224131,152.213854 22.3224131,154.224 C19.9224131,157.209366 15.6824131,158.881171 11.9524131,157.537756 C10.1324131,156.880976 11.2124131,154.094634 13.0224131,154.751415 C20.2424131,157.338732 20.8824131,148.064195 23.7624131,144.252878 C26.4952072,140.771104 30.7135302,138.769895 35.1524131,138.849366 C37.0824131,138.938927 36.7424131,141.90439 34.8224131,141.814829 L34.8324131,141.82478 Z" id="Shape" fill="#152A75" fill-rule="nonzero"></path>
            <path d="M34.2524131,93.5713171 C34.8624131,93.0837073 35.4424131,92.5761951 36.0024131,92.0388293 L6.35241307,92.0388293 C6.69839262,92.6709049 7.09642174,93.2733573 7.54241307,93.84 C13.2424131,100.955122 25.2024131,100.825756 34.2524131,93.5713171 Z" id="Shape" fill="#152A75" fill-rule="nonzero"></path>
            <path d="M149.602413,158.254244 C140.602413,165.478829 137.842413,177.062049 143.542413,184.127415 C149.242413,191.19278 161.202413,191.093268 170.252413,183.858732 C179.302413,176.624195 182.012413,165.050927 176.312413,157.985561 C170.612413,150.920195 158.642413,150.999805 149.602413,158.254244 Z M170.832413,164.414049 C166.822706,164.425769 163.14322,166.627279 161.252413,170.145951 C160.102413,172.345171 159.922413,174.803122 158.322413,176.813268 C155.922413,179.798634 151.682413,181.470439 147.952413,180.127024 C146.132413,179.470244 147.212413,176.683902 149.022413,177.340683 C156.242413,179.928 156.882413,170.653463 159.762413,166.842146 C162.495207,163.360372 166.71353,161.359164 171.152413,161.438634 C173.082413,161.48839 172.742413,164.453854 170.822413,164.374244 L170.832413,164.414049 Z" id="Shape" fill="#152A75" fill-rule="nonzero"></path>
            <path d="M108.302413,180.505171 C102.602413,173.429854 90.6424131,173.539317 81.5924131,180.773854 C73.9624131,186.864 70.8624131,196.068878 73.5024131,203.034732 L81.5024131,203.034732 C80.9671534,202.958962 80.4410835,202.82892 79.9324131,202.646634 C78.1124131,201.989854 79.1924131,199.203512 81.0024131,199.860293 C88.2224131,202.44761 88.8624131,193.173073 91.7424131,189.361756 C94.4752072,185.879982 98.6935302,183.878773 103.132413,183.958244 C105.062413,184.047805 104.722413,187.013268 102.802413,186.94361 C98.792093,186.953143 95.1115661,189.155275 93.2224131,192.675512 C92.0724131,194.874732 91.8924131,197.332683 90.2924131,199.342829 C88.6981854,201.336638 86.404377,202.655722 83.8724131,203.034732 L105.722413,203.034732 C111.882413,195.929561 113.192413,186.565463 108.302413,180.505171 Z" id="Shape" fill="#152A75" fill-rule="nonzero"></path>
            <path d="M14.0024131,203.034732 L40.2824131,203.034732 C34.6524131,196.068878 22.9824131,196.128585 14.0024131,203.034732 Z" id="Shape" fill="#152A75" fill-rule="nonzero"></path>
        </g>
    </g>
</svg>