<?xml version="1.0" encoding="UTF-8"?>
<svg width="183px" height="203px" viewBox="0 0 183 203" version="1.1" xmlns="http://www.w3.org/2000/svg" xmlns:xlink="http://www.w3.org/1999/xlink">
    <!-- Generator: Sketch 45.2 (43514) - http://www.bohemiancoding.com/sketch -->
    <title>Artboard 2</title>
    <desc>Created with Sketch.</desc>
    <defs></defs>
    <g id="Page-1" stroke="none" stroke-width="1" fill="none" fill-rule="evenodd">
        <g id="Artboard-2">
            <g id="Group" transform="translate(-1.000000, -1.000000)">
                <polygon id="Rectangle" fill="#173085" points="0.951882838 0.701512103 184.815392 0.701512103 184.815392 204.731512 0.951882838 204.731512"></polygon>
                <path d="M148.902571,113.681512 C152.632571,115.031512 156.902571,113.371512 159.272571,110.351512 C160.872571,108.351512 161.052571,105.861512 162.202571,103.651512 C164.093378,100.115591 167.772864,97.9032903 171.782571,97.8915121 C173.702571,97.9715121 174.042571,94.9915121 172.112571,94.8915121 C167.673688,94.8116522 163.455365,96.8226701 160.722571,100.321512 C157.842571,104.151512 157.202571,113.471512 149.982571,110.871512 C148.162571,110.221512 147.082571,113.021512 148.902571,113.681512 Z" id="Shape"></path>
                <path d="M84.8225709,0.731512103 L82.4725709,0.731512103 C83.2521079,0.840577836 84.043034,0.840577836 84.8225709,0.731512103 Z" id="Shape"></path>
                <path d="M177.252571,91.4215121 C171.552571,84.3115121 159.592571,84.4215121 150.542571,91.6915121 C149.932571,92.1815121 149.352571,92.6915121 148.792571,93.2315121 L178.442571,93.2315121 C178.096552,92.5963617 177.698525,91.9909593 177.252571,91.4215121 Z" id="Shape" fill="#152A75" fill-rule="nonzero"></path>
                <path d="M171.202571,49.4315121 C162.152571,56.7315121 150.192571,56.8015121 144.492571,49.7015121 C138.792571,42.6015121 141.502571,30.9715121 150.552571,23.7015121 C159.602571,16.4315121 171.562571,16.3315121 177.262571,23.4315121 C182.962571,30.5315121 180.202571,42.1715121 171.202571,49.4315121 Z M149.972571,42.8815121 C148.162571,42.2215121 147.082571,45.0215121 148.892571,45.6915121 C152.622571,47.0415121 156.862571,45.3615121 159.262571,42.3615121 C160.862571,40.3415121 161.042571,37.8715121 162.192571,35.6615121 C164.083378,32.1255909 167.762864,29.9132903 171.772571,29.9015121 C173.692571,29.9715121 174.032571,26.9915121 172.102571,26.9015121 C167.663688,26.8216522 163.445365,28.8326701 160.712571,32.3315121 C157.832571,36.1615121 157.192571,45.4815121 149.972571,42.8815121 Z" id="Shape" fill="#152A75" fill-rule="nonzero"></path>
                <path d="M82.5525709,46.3615121 C91.5925709,39.1015121 103.562571,38.9915121 109.262571,46.0915121 C114.962571,53.1915121 112.252571,64.8215121 103.202571,72.0915121 C94.1525709,79.3615121 82.1925709,79.4615121 76.4925709,72.3615121 C70.7925709,65.2615121 73.5525709,53.6215121 82.5525709,46.3615121 Z M103.782571,52.5515121 L103.772571,52.5515121 C105.692571,52.6315121 106.032571,49.6515121 104.102571,49.5615121 C99.663688,49.4816522 95.445365,51.4926701 92.7125709,54.9915121 C89.8325709,58.8215121 89.1925709,68.1415121 81.9725709,65.5415121 C80.1625709,64.8815121 79.0825709,67.6815121 80.9025709,68.3415121 C84.6325709,69.6915121 88.8725709,68.0115121 91.2725709,65.0115121 C92.8725709,62.9915121 93.0525709,60.5215121 94.2025709,58.3115121 C96.0917239,54.7740187 99.7722508,52.5610922 103.782571,52.5515121 Z" id="Shape" fill="#152A75" fill-rule="nonzero"></path>
                <path d="M41.2525709,68.7315121 C46.5725709,75.3815121 44.5625709,85.9515121 36.9425709,93.2015121 L7.29257091,93.2015121 C3.28257091,86.0015121 6.22257091,75.6715121 14.5425709,69.0015121 C23.5925709,61.7315121 35.5525709,61.6215121 41.2525709,68.7315121 Z M26.1925709,80.9715121 C28.0887094,77.4433273 31.7671536,75.2393326 35.7725709,75.2315121 C37.6925709,75.3015121 38.0325709,72.3215121 36.1025709,72.2315121 C31.6619308,72.1460985 27.4395506,74.153581 24.7025709,77.6515121 C21.8225709,81.4815121 21.1825709,90.8015121 13.9625709,88.2015121 C12.1525709,87.5415121 11.0725709,90.3415121 12.8925709,91.0015121 C16.6225709,92.3515121 20.8625709,90.6715121 23.2625709,87.6715121 C24.8625709,85.6515121 25.0425709,83.1815121 26.1925709,80.9715121 Z" id="Shape" fill="#152A75" fill-rule="nonzero"></path>
                <path d="M103.202571,4.1015121 C104.459593,3.0863554 105.621101,1.95832047 106.672571,0.731512103 L84.8225709,0.731512103 C84.043034,0.840577836 83.2521079,0.840577836 82.4725709,0.731512103 L74.4725709,0.731512103 C74.9428286,2.04285048 75.6178618,3.27141076 76.4725709,4.3715121 C82.1925709,11.4815121 94.1525709,11.3615121 103.202571,4.1015121 Z" id="Shape" fill="#152A75" fill-rule="nonzero"></path>
                <path d="M8.49257091,27.0415121 C2.79257091,19.9315121 5.50257091,8.2815121 14.5525709,1.0315121 L14.9525709,0.731512103 L41.2525709,0.731512103 C46.9525709,7.8615121 44.2525709,19.5015121 35.2025709,26.7715121 C26.1525709,34.0415121 14.1925709,34.1515121 8.49257091,27.0415121 Z M24.7125709,9.6615121 C21.8325709,13.4915121 21.1925709,22.8115121 13.9625709,20.2215121 C12.1525709,19.5615121 11.0725709,22.3615121 12.8925709,23.0215121 C16.6225709,24.3715121 20.8625709,22.6915121 23.2625709,19.6915121 C24.8625709,17.6715121 25.0425709,15.2015121 26.1925709,12.9915121 C28.0833777,9.45559092 31.7628639,7.24329027 35.7725709,7.2315121 C37.6925709,7.3015121 38.0325709,4.3215121 36.1025709,4.2315121 C31.663688,4.1516522 27.445365,6.16267009 24.7125709,9.6615121 Z" id="Shape" fill="#152A75" fill-rule="nonzero"></path>
                <path d="M144.492571,117.731512 C139.172571,111.081512 141.182571,100.511512 148.802571,93.2615121 L178.452571,93.2615121 C182.462571,100.461512 179.522571,110.791512 171.202571,117.461512 C162.152571,124.731512 150.192571,124.841512 144.492571,117.731512 Z M149.972571,110.901512 L149.972571,110.881512 C148.162571,110.221512 147.082571,113.021512 148.892571,113.711512 C152.622571,115.061512 156.862571,113.381512 159.262571,110.381512 C160.862571,108.361512 161.042571,105.891512 162.192571,103.681512 C164.083378,100.145591 167.762864,97.9332903 171.772571,97.9215121 C173.692571,97.9915121 174.032571,95.0115121 172.102571,94.9215121 C167.663688,94.8416522 163.445365,96.8526701 160.712571,100.351512 C157.832571,104.181512 157.192571,113.501512 149.972571,110.901512 Z" id="Shape" fill="#152A75" fill-rule="nonzero"></path>
                <path d="M82.5525709,114.361512 C91.5925709,107.101512 103.562571,106.991512 109.262571,114.091512 C114.962571,121.191512 112.252571,132.821512 103.202571,140.091512 C94.1525709,147.361512 82.1925709,147.461512 76.4925709,140.361512 C70.7925709,133.261512 73.5525709,121.621512 82.5525709,114.361512 Z M103.782571,120.551512 L103.772571,120.551512 C105.692571,120.631512 106.032571,117.651512 104.102571,117.561512 C99.663688,117.481652 95.445365,119.49267 92.7125709,122.991512 C89.8325709,126.821512 89.1925709,136.141512 81.9725709,133.541512 C80.1625709,132.881512 79.0825709,135.681512 80.9025709,136.341512 C84.6325709,137.691512 88.8725709,136.011512 91.2725709,133.011512 C92.8725709,130.991512 93.0525709,128.521512 94.2025709,126.311512 C96.0917239,122.774019 99.7722508,120.561092 103.782571,120.551512 Z" id="Shape" fill="#152A75" fill-rule="nonzero"></path>
                <path d="M14.5525709,137.031512 C23.5925709,129.731512 35.5625709,129.661512 41.2625709,136.761512 C46.9625709,143.861512 44.2525709,155.491512 35.2025709,162.761512 C26.1525709,170.031512 14.1925709,170.131512 8.49257091,163.031512 C2.79257091,155.931512 5.55257091,144.291512 14.5525709,137.031512 Z M35.7825709,143.221512 L35.7725709,143.211512 C37.6925709,143.301512 38.0325709,140.321512 36.1025709,140.231512 C31.663688,140.151652 27.445365,142.16267 24.7125709,145.661512 C21.8325709,149.491512 21.1925709,158.811512 13.9725709,156.211512 C12.1625709,155.551512 11.0825709,158.351512 12.9025709,159.011512 C16.6325709,160.361512 20.8725709,158.681512 23.2725709,155.681512 C24.8725709,153.661512 25.0525709,151.191512 26.2025709,148.981512 C28.0933777,145.445591 31.7728639,143.23329 35.7825709,143.221512 Z" id="Shape" fill="#152A75" fill-rule="nonzero"></path>
                <path d="M35.2025709,94.7315121 C35.8125709,94.2415121 36.3925709,93.7315121 36.9525709,93.1915121 L7.30257091,93.1915121 C7.64855045,93.8266861 8.04657958,94.4320917 8.49257091,95.0015121 C14.1925709,102.151512 26.1525709,102.021512 35.2025709,94.7315121 Z" id="Shape" fill="#152A75" fill-rule="nonzero"></path>
                <path d="M150.552571,159.731512 C159.592571,152.441512 171.562571,152.361512 177.262571,159.461512 C182.962571,166.561512 180.252571,178.191512 171.202571,185.461512 C162.152571,192.731512 150.192571,192.831512 144.492571,185.731512 C138.792571,178.631512 141.552571,166.991512 150.552571,159.731512 Z M171.782571,165.921512 L171.772571,165.881512 C173.692571,165.961512 174.032571,162.981512 172.102571,162.931512 C167.663688,162.851652 163.445365,164.86267 160.712571,168.361512 C157.832571,172.191512 157.192571,181.511512 149.972571,178.911512 C148.162571,178.251512 147.082571,181.051512 148.902571,181.711512 C152.632571,183.061512 156.872571,181.381512 159.272571,178.381512 C160.872571,176.361512 161.052571,173.891512 162.202571,171.681512 C164.093378,168.145591 167.772864,165.93329 171.782571,165.921512 Z" id="Shape" fill="#152A75" fill-rule="nonzero"></path>
                <path d="M109.252571,182.091512 C103.552571,174.981512 91.5925709,175.091512 82.5425709,182.361512 C74.9125709,188.481512 71.8125709,197.731512 74.4525709,204.731512 L82.4525709,204.731512 C81.9173113,204.655371 81.3912413,204.524692 80.8825709,204.341512 C79.0625709,203.681512 80.1425709,200.881512 81.9525709,201.541512 C89.1725709,204.141512 89.8125709,194.821512 92.6925709,190.991512 C95.425365,187.49267 99.643688,185.481652 104.082571,185.561512 C106.012571,185.651512 105.672571,188.631512 103.752571,188.561512 C99.7422508,188.571092 96.0617239,190.784019 94.1725709,194.321512 C93.0225709,196.531512 92.8425709,199.001512 91.2425709,201.021512 C89.6483432,203.025094 87.3545349,204.350644 84.8225709,204.731512 L106.672571,204.731512 C112.832571,197.591512 114.142571,188.181512 109.252571,182.091512 Z" id="Shape" fill="#152A75" fill-rule="nonzero"></path>
                <path d="M14.9525709,204.731512 L41.2325709,204.731512 C35.6025709,197.731512 23.9325709,197.791512 14.9525709,204.731512 Z" id="Shape" fill="#152A75" fill-rule="nonzero"></path>
            </g>
        </g>
    </g>
</svg>