<svg width="94" height="118" viewBox="0 0 94 118" xmlns="http://www.w3.org/2000/svg" xmlns:xlink="http://www.w3.org/1999/xlink"><title>French press</title><desc>Created using Figma</desc><use xlink:href="#a" transform="translate(7.1 33.96)" fill="#F2E9E7"/><use xlink:href="#b" transform="translate(11.7 39.1)" fill="url(#c)"/><use xlink:href="#d" transform="translate(38.4 37.72)" fill="#261611"/><use xlink:href="#e" transform="translate(12 56.8)" fill="url(#f)"/><use xlink:href="#g" transform="translate(11.7 56.51)" fill="#FFC8BD"/><use xlink:href="#h" transform="translate(61.4 59.65)" fill="#FFC8BD"/><use xlink:href="#i" transform="translate(56 61.36)" fill="#FFC8BD"/><use xlink:href="#i" transform="translate(50.5 58.51)" fill="#FFC8BD"/><use xlink:href="#j" transform="translate(48.5 61.93)" fill="#FFC8BD"/><use xlink:href="#i" transform="translate(11.7 60.22)" fill="#FFC8BD"/><use xlink:href="#j" transform="translate(20.8 61.65)" fill="#FFC8BD"/><use xlink:href="#j" transform="translate(52.3 66.22)" fill="#FFC8BD"/><g><use xlink:href="#k" transform="translate(13.6 39.1)" fill="url(#l)"/><use xlink:href="#m" transform="translate(20 39.1)" fill="url(#n)"/></g><g><use xlink:href="#o" transform="translate(5.7 44.49)" fill="url(#p)"/><use xlink:href="#q" transform="translate(3.9 101.61)" fill="url(#r)"/><use xlink:href="#s" transform="translate(10.6 101.61)" fill="url(#t)"/><use xlink:href="#u" transform="translate(12 44.52)" fill="url(#v)"/></g><g><use xlink:href="#w" transform="translate(4.6 13.7)" fill="url(#x)"/><use xlink:href="#y" transform="translate(0 29.68)" fill="#63291F"/><use xlink:href="#z" transform="translate(33.8)" fill="#63291F"/><use xlink:href="#A" transform="translate(5.4 29.68)" fill="url(#B)"/><use xlink:href="#C" transform="translate(10.9 16.53)" fill="#FFEDE9"/></g><defs><linearGradient id="c" x2="1" gradientUnits="userSpaceOnUse" gradientTransform="matrix(0 -26.686 26.698 0 14.306 28.54)"><stop offset="0" stop-color="#F7EFED"/><stop offset=".35" stop-color="#CAA7A0" stop-opacity=".66"/><stop offset="1" stop-color="#731D0B" stop-opacity="0"/></linearGradient><radialGradient id="f" cx=".5" cy=".5" r=".5" gradientUnits="userSpaceOnUse" gradientTransform="matrix(169.058 0 0 168.98 -90.43 -85.44)"><stop offset="0" stop-color="#5B2C19"/><stop offset=".56" stop-color="#4D130B"/><stop offset="1" stop-color="#690C00"/></radialGradient><linearGradient id="l" x2="1" gradientUnits="userSpaceOnUse" gradientTransform="matrix(0 49.034 -49.056 0 26.455 19.16)"><stop offset="0" stop-color="#FFF9F8"/><stop offset=".34" stop-color="#FFC1B6" stop-opacity=".67"/><stop offset="1" stop-color="#FF4F30" stop-opacity="0"/></linearGradient><linearGradient id="n" x2="1" gradientUnits="userSpaceOnUse" gradientTransform="matrix(0 7949.47 -178.32 0 192.67 12188.3)"><stop offset="0" stop-color="#FFF9F8"/><stop offset=".34" stop-color="#FFC1B6" stop-opacity=".67"/><stop offset="1" stop-color="#FF4F30" stop-opacity="0"/></linearGradient><linearGradient id="p" x2="1" gradientUnits="userSpaceOnUse" gradientTransform="matrix(88.255 0 0 88.215 0 -10.216)"><stop offset="0" stop-color="#633E35"/><stop offset=".03" stop-color="#5F3B33"/><stop offset=".2" stop-color="#4C2F28"/><stop offset=".37" stop-color="#412822"/><stop offset=".56" stop-color="#3D2620"/><stop offset=".75" stop-color="#3A241E"/><stop offset=".91" stop-color="#2F1D17"/><stop offset="1" stop-color="#261611"/></linearGradient><linearGradient id="r" x2="1" gradientUnits="userSpaceOnUse" gradientTransform="matrix(18326.2 0 0 3977 996.06 4031.54)"><stop offset="0" stop-color="#633E35"/><stop offset=".03" stop-color="#5F3B33"/><stop offset=".2" stop-color="#4C2F28"/><stop offset=".37" stop-color="#412822"/><stop offset=".56" stop-color="#3D2620"/><stop offset=".75" stop-color="#3A241E"/><stop offset=".91" stop-color="#2F1D17"/><stop offset="1" stop-color="#261611"/></linearGradient><linearGradient id="t" x2="1" gradientUnits="userSpaceOnUse" gradientTransform="matrix(0 -16.98 17 0 -5.07 19.98)"><stop offset="0" stop-color="#FF735C" stop-opacity=".3"/><stop offset="1" stop-color="#FF4F30" stop-opacity="0"/></linearGradient><linearGradient id="v" x2="1" gradientUnits="userSpaceOnUse" gradientTransform="matrix(0 -274.56 200.74 0 179.03 1367.85)"><stop offset="0" stop-color="#FF735C" stop-opacity=".3"/><stop offset="1" stop-color="#FF4F30" stop-opacity="0"/></linearGradient><linearGradient id="x" x2="1" gradientUnits="userSpaceOnUse" gradientTransform="matrix(-3.24 -31.6 31.6 -3.23 19.09 15.45)"><stop offset="0" stop-color="#63291F"/><stop offset=".62" stop-color="#B6433A"/><stop offset="1" stop-color="#EB534B"/></linearGradient><linearGradient id="B" x2="1" gradientUnits="userSpaceOnUse" gradientTransform="matrix(.22 14.16 -14.17 .22 10.9 -.68)"><stop offset="0" stop-color="#FFF9F8" stop-opacity=".5"/><stop offset=".66" stop-color="#FF8A75" stop-opacity=".17"/><stop offset="1" stop-color="#FF4F30" stop-opacity="0"/></linearGradient><path id="a" d="M0 0h65.39v65.196c0 4.358-1.733 8.538-4.816 11.62-3.082 3.08-7.264 4.81-11.624 4.81H16.44c-4.36 0-8.542-1.73-11.625-4.81C1.732 73.733 0 69.553 0 65.195V0z"/><path id="b" d="M0 0h55.31v55.24c0 1.593-.314 3.168-.924 4.638-.61 1.47-1.502 2.806-2.628 3.93-1.126 1.127-2.462 2.02-3.933 2.628-1.47.608-3.048.92-4.64.92H12.12c-3.214 0-6.297-1.275-8.57-3.548C1.277 61.536 0 58.455 0 55.24V0z"/><path id="d" d="M0 1.38v24.258c0 1.836 2.855 1.84 2.855 0V1.378C2.855-.456 0-.46 0 1.38z"/><path id="e" d="M0 0h55.024v43.254c0 1.59-.314 3.167-.923 4.637-.608 1.47-1.502 2.807-2.627 3.932-1.126 1.125-2.463 2.018-3.934 2.626-1.472.61-3.048.922-4.64.922H12.12c-3.214 0-6.297-1.277-8.57-3.55C1.277 49.55 0 46.468 0 43.255V0z"/><path id="g" d="M55.395 0H0v6.564h55.395V0z"/><path id="h" d="M2.855 5.708c1.577 0 2.856-1.278 2.856-2.854S4.433 0 2.856 0 0 1.278 0 2.854s1.278 2.854 2.855 2.854z"/><path id="i" d="M3.14 6.28c1.736 0 3.142-1.407 3.142-3.14C6.282 1.406 4.876 0 3.142 0 1.405 0 0 1.406 0 3.14c0 1.733 1.406 3.14 3.14 3.14z"/><path id="j" d="M1.428 2.854c.788 0 1.427-.64 1.427-1.427C2.855.64 2.215 0 1.428 0 .638 0 0 .64 0 1.427c0 .788.64 1.427 1.428 1.427z"/><path id="k" d="M3.855 0H0v63.647h3.855V0z"/><path id="m" d="M1.428 0H0v63.647h1.428V0z"/><path id="o" d="M67.102.033c-3.426-.074-63.73 0-63.73 0-.894 0-1.752.355-2.384.987C.355 1.652 0 2.51 0 3.404v.676c0 .443.087.882.256 1.29.17.41.418.782.73 1.095.314.314.686.562 1.095.732.41.17.85.257 1.292.257h63.73c8.567 0 13.875 13.722 13.875 25.424 0 14.142-6.585 26.104-21.013 27.85v7.056c18.46-1.775 28.3-16.84 28.3-34.783C88.254 17.444 80.237.32 67.102.034z"/><path id="q" d="M71.605 15.698H.73c-.14 0-.28-.043-.4-.12-.117-.078-.21-.19-.268-.32-.057-.13-.075-.272-.052-.412.023-.14.086-.27.18-.376l.13-.14c1.325-1.44 2.027-3.116 2.027-4.826V.734c0-.195.077-.382.215-.52C2.7.078 2.886 0 3.082 0h66.205c.194 0 .38.077.518.215.138.137.215.324.215.52v8.803c0 1.75.737 3.463 2.116 4.924.098.104.163.234.188.375.025.14.008.285-.048.417-.057.13-.15.243-.27.322-.118.08-.258.12-.4.122z"/><path id="s" d="M4.854 15.698H0c.893-.522 1.63-1.274 2.132-2.178.503-.904.752-1.926.723-2.96V0h3.998v10.56c0 4.28-2 5.138-2 5.138z"/><path id="u" d="M5.425 7.42H1.713S0 6.28 0 3.71C0 1.142 1.713 0 1.713 0h3.712S3.998 1.142 3.712 3.71c-.095.717.016 1.447.32 2.104.302.656.786 1.214 1.393 1.607z"/><path id="w" d="M20.845 0h29.41c5.53 0 10.83 2.195 14.74 6.102 3.91 3.908 6.105 9.207 6.105 14.733H0C0 15.31 2.196 10.01 6.105 6.102 10.015 2.195 15.315 0 20.845 0z"/><path id="y" d="M75.24 0H4.71C2.11 0 0 2.108 0 4.71c0 2.6 2.11 4.71 4.71 4.71h70.53c2.602 0 4.712-2.11 4.712-4.71 0-2.602-2.11-4.71-4.712-4.71z"/><path id="z" d="M5.497 10.988c3.035 0 5.496-2.46 5.496-5.494S8.533 0 5.497 0C2.46 0 0 2.46 0 5.494s2.46 5.494 5.497 5.494z"/><path id="A" d="M2 0h5.71c-.634.517-1.143 1.17-1.49 1.912-.345.742-.52 1.55-.51 2.37 0 2.853 2 5.137 2 5.137H2C.727 8.006.016 6.18 0 4.28 0 1.143 2 0 2 0z"/><path id="C" d="M11.36.02C9.327.333 7.197.93 5.41 1.96 3.364 3.133 1.67 4.994.274 6.87c-1.1 1.476 1.38 2.9 2.464 1.428 1.007-1.353 2.723-3.17 4.434-4.056 1.557-.75 3.223-1.248 4.937-1.473 1.82-.272 1.043-3.035-.75-2.75z"/></defs></svg>