<svg width="103" height="105" viewBox="0 0 103 105" xmlns="http://www.w3.org/2000/svg" xmlns:xlink="http://www.w3.org/1999/xlink"><title>Drip Coffee pot</title><desc>Created using Figma</desc><use xlink:href="#a" transform="translate(.54 20.78)" fill="#F7EFED"/><use xlink:href="#b" transform="translate(4.5 24.15)" fill="url(#c)"/><use xlink:href="#d" transform="translate(4.5 58.67)" fill="#5B2C19"/><use xlink:href="#e" transform="translate(22 56.35)" fill="url(#f)"/><use xlink:href="#g" transform="translate(76.4 60.05)" fill="#FFD0C2"/><g><use xlink:href="#h" transform="translate(4.4 26)" fill="url(#i)" opacity=".48"/><use xlink:href="#j" transform="translate(27.7 25.95)" fill="url(#k)" fill-opacity=".53" opacity=".65"/></g><g><use xlink:href="#l" transform="translate(24 .3)" fill="url(#m)"/><use xlink:href="#n" transform="translate(27.3 10.81)" fill="url(#o)" opacity=".53"/></g><defs><radialGradient id="c" cx=".5" cy=".5" r=".5" gradientUnits="userSpaceOnUse" gradientTransform="matrix(121.303 0 0 121.092 -8.59 2.97)"><stop offset="0" stop-color="#EF6558" stop-opacity=".7"/><stop offset=".17" stop-color="#EF685C" stop-opacity=".68"/><stop offset=".32" stop-color="#F07367" stop-opacity=".64"/><stop offset=".47" stop-color="#F2847A" stop-opacity=".56"/><stop offset=".62" stop-color="#F59D94" stop-opacity=".45"/><stop offset=".76" stop-color="#F8BCB6" stop-opacity=".3"/><stop offset=".91" stop-color="#FCE2DF" stop-opacity=".13"/><stop offset="1" stop-color="#FFF" stop-opacity="0"/></radialGradient><radialGradient id="f" cx=".5" cy=".5" r=".5" gradientUnits="userSpaceOnUse" gradientTransform="matrix(83.15 0 0 83.006 -21.377 -8.255)"><stop offset="0" stop-color="#EF6558"/><stop offset=".03" stop-color="#E36253"/><stop offset=".1" stop-color="#C85946"/><stop offset=".18" stop-color="#B3533C"/><stop offset=".28" stop-color="#A44E34"/><stop offset=".38" stop-color="#9C4C30"/><stop offset=".55" stop-color="#994B2F"/><stop offset=".68" stop-color="#A45437"/><stop offset=".9" stop-color="#C26A4B"/><stop offset="1" stop-color="#D17656"/></radialGradient><linearGradient id="i" x2="1" gradientUnits="userSpaceOnUse" gradientTransform="matrix(-5.165 50.95 -51.04 -5.156 43.947 14.13)"><stop offset="0" stop-color="#FFF"/><stop offset=".2" stop-color="#FFFCFC"/><stop offset=".36" stop-color="#FFF3F2"/><stop offset=".5" stop-color="#FFE4E1"/><stop offset=".64" stop-color="#FFCEC9"/><stop offset=".77" stop-color="#FFB2AB"/><stop offset=".89" stop-color="#FF9186"/><stop offset="1" stop-color="#FF6C5E"/></linearGradient><linearGradient id="k" x2="1" gradientUnits="userSpaceOnUse" gradientTransform="matrix(0 28.784 -28.835 0 20.31 13.263)"><stop offset="0" stop-color="#FFF"/><stop offset=".09" stop-color="#FFF" stop-opacity=".97"/><stop offset=".22" stop-color="#FFF" stop-opacity=".88"/><stop offset=".39" stop-color="#FFF" stop-opacity=".74"/><stop offset=".58" stop-color="#FFF" stop-opacity=".54"/><stop offset=".79" stop-color="#FFF" stop-opacity=".28"/><stop offset="1" stop-color="#FFF" stop-opacity="0"/></linearGradient><linearGradient id="m" x2="1" gradientUnits="userSpaceOnUse" gradientTransform="matrix(32.32 32.546 -32.603 32.264 24.867 -15.477)"><stop offset="0" stop-color="#633E35"/><stop offset=".03" stop-color="#5F3B33"/><stop offset=".2" stop-color="#4C2F28"/><stop offset=".37" stop-color="#412822"/><stop offset=".56" stop-color="#3D2620"/><stop offset=".75" stop-color="#3A241E"/><stop offset=".91" stop-color="#2F1D17"/><stop offset="1" stop-color="#261611"/></linearGradient><linearGradient id="o" x2="1" gradientUnits="userSpaceOnUse" gradientTransform="matrix(-.645 13.975 -14 -.643 11.55 1.837)"><stop offset="0" stop-color="#D6A598"/><stop offset=".1" stop-color="#D8A89C" stop-opacity=".96"/><stop offset=".25" stop-color="#DCB2A7" stop-opacity=".86"/><stop offset=".44" stop-color="#E3C1B8" stop-opacity=".69"/><stop offset=".65" stop-color="#EDD7D1" stop-opacity=".45"/><stop offset=".89" stop-color="#F9F2F0" stop-opacity=".15"/><stop offset="1" stop-color="#FFF" stop-opacity="0"/></linearGradient><path id="a" d="M88.836 46.188c0 23.14-19.888 37.594-44.417 37.594C19.89 83.782 0 69.32 0 46.188S19.887 0 44.416 0c24.53 0 44.42 23.056 44.42 46.188z"/><path id="b" d="M80.912 42.598c0 21.28-17.897 33.48-40.465 33.48C17.88 76.078 0 63.758 0 42.478 0 21.195 18.282 0 40.846 0 63.41 0 80.912 21.32 80.912 42.598z"/><path id="d" d="M3.884 8.857c-1.57 0-2.456.37-3.078 1.1-.332.41-.57.886-.698 1.396-.128.51-.142 1.043-.043 1.56C3.158 30.69 20.07 41.558 40.47 41.558c20.583-.002 37.88-10.37 40.377-28.504.648-4.693-2.437-10.41-5.962-12.61-3.392-2.12-5.803 3.95-14.68 5.293-15.21 2.28-23.18 10.358-38.028 9.983-8.99-.22-11.132-6.866-18.293-6.866z"/><path id="e" d="M59.928 5.067c-2.468-3.24-6.745-5.728-16.5-4.91-15.11 1.27-23.685 17.98-38.198 17.89C1.95 18.026 0 17.35 0 17.35s16.36 8.395 34.16 7.337C60.87 23.113 63.474 9.72 59.928 5.066z"/><path id="g" d="M.367 1.29c1.34.616 2.64 1.993 2.87 3.483.135.895 1.498.514 1.362-.375C4.315 2.588 2.71.822 1.08.072.26-.308-.46.918.366 1.292z"/><path id="h" d="M31.125.006S16.93 20.746 17.51 48.078C17.86 64.556 27.69 72.695 27.69 72.695s-8.648-2.077-14.81-6.818C8.07 62.174-.976 53.923.085 40.072 2.093 14.054 25.736 0 25.736 0l5.39.006z"/><path id="j" d="M0 47.22C1.645 18.72 9.612.24 9.612.24L11.785 0S5.315 19.147 5.9 46.473"/><path id="l" d="M42.353 12.634c-1.858-.69-3.756-1.272-5.682-1.74-.282-.094-1.438-.345-2.097-.475 1.15-4.07.388-8.41-3.163-9.404C25.473-.646 9.493.124 5.03.59c-.146.014-.285.065-.406.146-.12.082-.22.193-.286.322-.067.13-.1.273-.098.418.003.146.042.288.113.415.905 1.604 2.706 4.75 5.035 8.62H7.61c-2.02 0-3.954.8-5.38 2.226C.8 14.16 0 16.094 0 18.11c0 .997.197 1.985.58 2.907.382.922.943 1.76 1.65 2.466 1.427 1.425 3.364 2.226 5.383 2.226l26.714-.002c1.4 0 2.77-.385 3.964-1.113s2.163-1.77 2.802-3.012c11.59 4.823 21.134 14.163 25.584 26.177 1.97 5.232 2.976 10.777 2.97 16.367.03 5.593 8.74 5.605 8.71 0-.12-22.895-14.564-43.46-36.003-51.493z"/><path id="n" d="M8.2 0H2.877C1.023 2.1 0 4.8 0 7.6c0 2.798 1.023 5.5 2.877 7.6H8.2c-1.854-2.1-2.877-4.802-2.877-7.6 0-2.8 1.023-5.5 2.877-7.6z"/></defs></svg>