<svg width="87" height="109" viewBox="0 0 87 109" xmlns="http://www.w3.org/2000/svg" xmlns:xlink="http://www.w3.org/1999/xlink"><title>Keurig</title><desc>Created using Figma</desc><use xlink:href="#a" transform="translate(.59 19.17)" fill="url(#b)"/><use xlink:href="#c" transform="translate(.12 16.88)" fill="#F9F1EF"/><use xlink:href="#d" transform="translate(5.69 22.09)" fill="url(#e)"/><use xlink:href="#f" transform="translate(17.61 81.17)" fill="#D19E93"/><g transform="translate(-9857 -2375)"><use xlink:href="#g" transform="translate(9928.41 2404.58)" fill="url(#h)"/></g><g><use xlink:href="#i" transform="translate(0 3.75)" fill="url(#j)"/><use xlink:href="#k" transform="translate(71.54 13.28)" fill="#F2D5CE"/></g><g><use xlink:href="#l" transform="translate(1.8 7.81)" fill="url(#m)"/><use xlink:href="#n" transform="translate(24.92 24.24)" fill="url(#o)"/><use xlink:href="#p" transform="translate(23.73 15.46)" fill="url(#q)"/><use xlink:href="#r" transform="translate(27.27 1.01)" fill="#7C7979"/><use xlink:href="#s" transform="translate(28.22 1.02)" fill="#544843"/><use xlink:href="#t" transform="translate(42.57 .98)" fill="url(#u)"/></g><defs><linearGradient id="b" x2="1" gradientUnits="userSpaceOnUse" gradientTransform="matrix(-28.5637 -4.43807 4.43708 -28.5701 62.88 61.49)"><stop offset="0" stop-color="#7D7371"/><stop offset=".53" stop-color="#5C504D"/><stop offset="1" stop-color="#473E3C"/></linearGradient><linearGradient id="e" x2="1" gradientUnits="userSpaceOnUse" gradientTransform="matrix(26.1982 -.36614 .36606 26.204 3.613 17.745)"><stop offset="0" stop-color="#F1FFFC" stop-opacity="0"/><stop offset=".35" stop-color="#F3EDE7" stop-opacity=".34"/><stop offset="1" stop-color="#F7C9BE"/></linearGradient><linearGradient id="h" x2="1" gradientUnits="userSpaceOnUse" gradientTransform="matrix(-7.30177 45.2128 -45.2027 -7.3034 27.518 8.816)"><stop offset="0" stop-color="#FFECE8" stop-opacity=".5"/><stop offset=".66" stop-color="#94827E" stop-opacity=".17"/><stop offset="1" stop-color="#5C4A46" stop-opacity="0"/></linearGradient><linearGradient id="j" x2="1" gradientUnits="userSpaceOnUse" gradientTransform="matrix(21.2148 -42.4363 42.4268 21.2195 24.863 3.748)"><stop offset="0" stop-color="#63291F"/><stop offset=".62" stop-color="#B6433A"/><stop offset="1" stop-color="#EB534B"/></linearGradient><linearGradient id="m" x2="1" gradientUnits="userSpaceOnUse" gradientTransform="matrix(20.7323 -8.56 8.558 20.737 8.275 5.21)"><stop offset="0" stop-color="#474241" stop-opacity=".04"/><stop offset=".18" stop-color="#463835" stop-opacity=".31"/><stop offset=".5" stop-color="#462A24" stop-opacity=".69"/><stop offset=".78" stop-color="#45221A" stop-opacity=".92"/><stop offset="1" stop-color="#451F16"/></linearGradient><linearGradient id="o" x2="1" gradientUnits="userSpaceOnUse" gradientTransform="matrix(16.2702 .1858 -.1858 16.2738 10.273 6.66)"><stop offset="0" stop-color="#453A3A"/><stop offset="1" stop-color="#7C7979"/></linearGradient><linearGradient id="q" x2="1" gradientUnits="userSpaceOnUse" gradientTransform="matrix(37.227 0 0 37.2354 0 -6.455)"><stop offset="0" stop-color="#C9BCBC"/><stop offset="1" stop-color="#EDE8E8"/></linearGradient><linearGradient id="u" x2="1" gradientUnits="userSpaceOnUse" gradientTransform="matrix(-3.2612 13.0008 -12.998 -3.262 14.91 2.01)"><stop offset="0" stop-color="#FFECE8" stop-opacity=".7"/><stop offset=".48" stop-color="#B29F9B" stop-opacity=".37"/><stop offset="1" stop-color="#5C4A46" stop-opacity="0"/></linearGradient><path id="a" d="M72.803 75.006C73.635 70.67 74.633 61 76.81 49.92c2.177-11.08 8.705-37.848 8.597-43.302L62.343 0 42.7 3.867 23.058 0 .002 6.627c-.117 5.456 6.41 32.22 8.596 43.3 2.186 11.083 3.43 15.962 4 25.08.19 3.08 1.386 6.443 3.923 7.963 4.4 2.65 13.784 6.865 26.183 6.865 12.4 0 21.78-4.216 26.18-6.865 2.52-1.51 3.324-4.877 3.92-7.964z"/><path id="c" d="M12.22 69.284c1.253 3.312 4.437 3.828 6.547.98l.108-.147c2.185-3.027 16.362-3.884 16.362-3.884s.554-42.16-1.94-55.198c-2.97-15.5-8.504-6.41-11.094-9.154C17.49-3.11.44 3.017.018 6.598-.537 11.312 12.22 69.284 12.22 69.284z"/><path id="d" d="M0 8.044L10.26 61.3l10.4-2.6c1.796-.45 3.387-1.496 4.51-2.968 1.125-1.47 1.716-3.28 1.677-5.133L25.79 0 0 8.044z"/><path id="f" d="M25.652 16.088c14.167 0 25.652-3.6 25.652-8.044C51.304 3.6 39.82 0 25.652 0 11.485 0 0 3.6 0 8.044c0 4.443 11.485 8.044 25.652 8.044z"/><path id="g" d="M6.1 3.883L1.11 44.658l1.11-1.11s-.28 2.22-.28 1.942c0-.277 9.43-44.658 9.43-44.658L0 0l6.1 3.883z"/><path id="i" d="M15.43 28.968c2.513-1.52 5.12-2.876 7.81-4.058l-2.44 1.068c5.206-2.246 10.687-3.79 16.3-4.594l-2.724.38c5.63-.76 11.337-.768 16.97-.022l-2.732-.388c5.756.803 11.378 2.378 16.714 4.682l-2.45-1.068c2.823 1.24 5.555 2.674 8.18 4.29 4.608 2.84 11.45 1.23 14.02-3.802 2.613-5.115 1.246-11.472-3.677-14.504C63.734.072 41.823-2.978 22.056 3.047 16.108 4.88 10.41 7.437 5.085 10.66.46 13.46-1.588 20.356 1.41 25.166c2.997 4.81 9.067 6.796 14.02 3.803z"/><path id="k" d="M1.005 2.674c1.54.258 3 1.2 4.254 2.067.95.652 1.832 1.396 2.636 2.22.207.212.406.433.597.66.235.277-.067-.114.097.125.998 1.467 3.4.083 2.393-1.387-1.007-1.47-2.477-2.657-3.91-3.695C5.543 1.553 3.65.343 1.74.023-.004-.27-.756 2.403 1.002 2.696l.003-.022z"/><path id="l" d="M28.09 0L0 10.95l11.922 14.702 16.087-8.044L28.09 0z"/><path id="n" d="M27.593 26.628s-1.456 3.33-10.33 3.33-10.053-3.33-10.053-3.33L0 0h34.803l-7.21 26.628z"/><path id="p" d="M18.58 24.326C4.59 24.326-1.35 14.27.257 6.812 1.382 1.587 3.79 0 3.79 0S10.28 17.198 18.58 17.198h.067C26.948 17.198 33.43 0 33.43 0s2.41 1.584 3.537 6.812c1.608 7.46-4.334 17.514-18.325 17.514"/><path id="r" d="M29.17 12.488L26.12 2.39S23.07 0 15.025 0C6.984 0 3.934 2.39 3.934 2.39l-3.4 11.48c-.628 2.296-.703 4.71-.22 7.04.484 2.332 1.513 4.516 3.003 6.374 1.49 1.857 3.4 3.335 5.57 4.313 2.17.978 4.542 1.428 6.92 1.313 2.378-.116 4.695-.792 6.76-1.975 2.067-1.183 3.824-2.84 5.128-4.832 1.303-1.993 2.116-4.266 2.373-6.633.256-2.368-.052-4.762-.9-6.988l.002.006z"/><path id="s" d="M28.23 12.328c0 8.197-5.268 14.84-14.106 14.84-8.838 0-14.476-5.27-14.107-14.84.028-.7 2.956-9.847 2.956-9.847S6.986.263 9.906.263c1.68 0 9.984-1.387 15.253 2.22.004 0 1.39 3.883 3.07 9.846z"/><path id="t" d="M0 .046l.11 23.286 13.756-10.818-3.05-9.985S9.982 1.42 6.377.586C4.29.087 2.14-.095 0 .047z"/></defs></svg>